<svg width="1500" height="1500" viewBox="0 0 1500 1500" fill="none" xmlns="http://www.w3.org/2000/svg">
<rect width="1500" height="1500" rx="750" fill="white"/>
<rect x="75" y="75" width="1349.93" height="1350" rx="674.965" fill="#FF9F2C"/>
<path d="M750.484 75C1123.01 75 1425 377.475 1425 750C1425 1122.52 1123.01 1425 750.484 1425V75Z" fill="#060429"/>
<rect x="175" y="175" width="1150" height="1150" rx="575" fill="white"/>
<path d="M985.476 1000H882.704L882.089 638.822C879.624 598.88 865.681 594.611 834.703 594.351H495.003C458.017 632.837 458.918 657.574 495.003 706.731H656.238C719.891 716.033 742.226 738.43 758.394 808.894V898.438C736.413 960.274 709.696 979.234 650.084 1000H450.695C395.235 980.352 368.258 965.694 351 912.26V843.149H457.464V879.808C457.382 892.316 463.561 895.794 480.849 898.438H614.391C648.388 856.386 645.915 833.579 614.391 793.87H472.849C354.52 758.381 354.277 664.415 356.539 640.024C358.8 615.633 379.289 510.006 472.849 500H869.781C949.74 525.683 979.809 554.682 985.476 653.846V1000Z" fill="#1D074C"/>
<path d="M992.245 606.971C985.249 549.778 962.55 529.307 910.397 500H1149.79V606.971H992.245Z" fill="#1D074C"/>
</svg>
